<svg xmlns="http://www.w3.org/2000/svg" viewBox="0 0 512 341.18"><path d="M-.031-.19v341.185h511.989V-.19z" fill-rule="evenodd" color="#000" fill="#0030ff"/><path d="M293.07 261.8h36.038l-29.155 21.184 11.136-34.274 11.136 34.274zm40.359-39.972h36.037l-29.155 21.183 11.136-34.273 11.136 34.273zM218.856 261.8H182.82l29.155 21.184-11.136-34.274-11.136 34.274zm-40.358-39.972h-36.037l29.155 21.183-11.137-34.273-11.136 34.273zM274 276.73h-36.038l29.155 21.184-11.136-34.274-11.136 34.274zM218.856 71.087H182.82l29.155 21.183-11.136-34.273-11.136 34.273zm-40.358 40.455h-36.037l29.155 21.183-11.137-34.274-11.136 34.274zm-14.785 54.902h-36.037l29.154 21.183-11.136-34.273-11.136 34.273zM293.07 71.087h36.038L299.953 92.27l11.136-34.273 11.136 34.273zm40.359 40.455h36.037l-29.155 21.183 11.136-34.274 11.136 34.274zm14.785 54.902h36.037l-29.155 21.183 11.137-34.273 11.136 34.273zM237.928 56.158h36.037L244.81 77.34l11.136-34.274 11.136 34.274z" fill="#ff0"/></svg>