<svg xmlns="http://www.w3.org/2000/svg" viewBox="0 0 380 200" version="1.0"><path stroke="#000" fill="none" d="M0 1h379v199H0z"/><g fill-rule="evenodd"><path fill="#bf0a30" d="M0 184h379v16H0z"/><path fill="#fff" d="M0 168h379v16H0z"/><path fill="#bf0a30" d="M0 152h379v16H0z"/><path fill="#fff" d="M0 136h379v16H0z"/><path fill="#bf0a30" d="M0 121h379v15H0z"/><path fill="#fff" d="M0 106h379v15H0z"/><path fill="#bf0a30" d="M0 91h379v15H0z"/><path fill="#fff" d="M0 76h379v15H0z"/><path fill="#bf0a30" d="M0 61h379v15H0z"/><path fill="#fff" d="M0 46h379v15H0z"/><path fill="#bf0a30" d="M0 31h379v15H0z"/><path fill="#fff" d="M0 16h379v15H0z"/><path fill="#bf0a30" d="M0 1h379v15H0z"/></g><path fill-rule="evenodd" fill="#002868" d="M0 1h152v105H0z"/><path d="M6.35 93.613l4.408-.483 1.687-4.287 1.79 4.242 4.418.346-3.294 3.1 1.04 4.509-3.829-2.33-3.769 2.43.935-4.529-3.386-2.998zm25 0l4.408-.483 1.687-4.287 1.79 4.242 4.418.346-3.294 3.1 1.04 4.509-3.829-2.33-3.769 2.43.935-4.529-3.386-2.998zm26 0l4.408-.483 1.687-4.287 1.79 4.242 4.418.346-3.294 3.1 1.04 4.509-3.829-2.33-3.769 2.43.935-4.529-3.386-2.998zm25 0l4.408-.483 1.687-4.287 1.79 4.242 4.418.346-3.294 3.1 1.04 4.509-3.829-2.33-3.769 2.43.935-4.529-3.386-2.998zm25 0l4.408-.483 1.687-4.287 1.79 4.242 4.418.346-3.294 3.1 1.04 4.509-3.829-2.33-3.769 2.43.935-4.529-3.386-2.998zm26 0l4.408-.483 1.687-4.287 1.79 4.242 4.418.346-3.294 3.1 1.04 4.509-3.829-2.33-3.769 2.43.935-4.529-3.386-2.998zm-114-10l4.408-.483 1.687-4.287 1.79 4.242 4.418.346-3.294 3.1 1.04 4.509-3.829-2.33-3.769 2.43.935-4.529-3.386-2.998zm-13-11l4.408-.483 1.687-4.287 1.79 4.242 4.418.346-3.294 3.1 1.04 4.509-3.829-2.33-3.769 2.43.935-4.529-3.386-2.998zm13-9.999l4.408-.483 1.687-4.287 1.79 4.242 4.418.346-3.294 3.1 1.04 4.509-3.829-2.33-3.769 2.43.935-4.529-3.386-2.998zm-13-11l4.408-.483 1.687-4.287 1.79 4.242 4.418.346-3.294 3.1 1.04 4.509-3.829-2.33-3.769 2.43.935-4.529-3.386-2.998zm13-10l4.408-.483 1.687-4.287 1.79 4.242 4.418.346-3.294 3.1 1.04 4.509-3.829-2.33-3.769 2.43.935-4.529-3.386-2.998zm-13-11l4.408-.483 1.687-4.287 1.79 4.242 4.418.346-3.294 3.1 1.04 4.509-3.829-2.33-3.769 2.43.935-4.529-3.386-2.998zm13-10l4.408-.483 1.687-4.287 1.79 4.242 4.418.346-3.294 3.1 1.04 4.509-3.829-2.33-3.769 2.43.935-4.529-3.386-2.998zm-13-11l4.408-.483 1.687-4.287 1.79 4.242 4.418.346-3.294 3.1 1.04 4.509-3.829-2.33-3.769 2.43.935-4.529L6.35 9.614zm38 73.999l4.408-.483 1.687-4.287 1.79 4.242 4.418.346-3.294 3.1 1.04 4.509-3.829-2.33-3.769 2.43.935-4.529-3.386-2.998zm-13-11l4.408-.483 1.687-4.287 1.79 4.242 4.418.346-3.294 3.1 1.04 4.509-3.829-2.33-3.769 2.43.935-4.529-3.386-2.998zm13-9.999l4.408-.483 1.687-4.287 1.79 4.242 4.418.346-3.294 3.1 1.04 4.509-3.829-2.33-3.769 2.43.935-4.529-3.386-2.998zm-13-11l4.408-.483 1.687-4.287 1.79 4.242 4.418.346-3.294 3.1 1.04 4.509-3.829-2.33-3.769 2.43.935-4.529-3.386-2.998zm13-10l4.408-.483 1.687-4.287 1.79 4.242 4.418.346-3.294 3.1 1.04 4.509-3.829-2.33-3.769 2.43.935-4.529-3.386-2.998zm-13-11l4.408-.483 1.687-4.287 1.79 4.242 4.418.346-3.294 3.1 1.04 4.509-3.829-2.33-3.769 2.43.935-4.529-3.386-2.998zm13-10l4.408-.483 1.687-4.287 1.79 4.242 4.418.346-3.294 3.1 1.04 4.509-3.829-2.33-3.769 2.43.935-4.529-3.386-2.998zm-13-11l4.408-.483 1.687-4.287 1.79 4.242 4.418.346-3.294 3.1 1.04 4.509-3.829-2.33-3.769 2.43.935-4.529-3.386-2.998zm38 73.999l4.408-.483 1.687-4.287 1.79 4.242 4.418.346-3.294 3.1 1.04 4.509-3.829-2.33-3.769 2.43.935-4.529-3.386-2.998zm-12-11l4.408-.483 1.687-4.287 1.79 4.242 4.418.346-3.294 3.1 1.04 4.509-3.829-2.33-3.769 2.43.935-4.529-3.386-2.998zm50 0l4.408-.483 1.687-4.287 1.79 4.242 4.418.346-3.294 3.1 1.04 4.509-3.829-2.33-3.769 2.43.935-4.529-3.386-2.998zm-25 0l4.408-.483 1.687-4.287 1.79 4.242 4.418.346-3.294 3.1 1.04 4.509-3.829-2.33-3.769 2.43.935-4.529-3.386-2.998zm38 11l4.408-.483 1.687-4.287 1.79 4.242 4.418.346-3.294 3.1 1.04 4.509-3.829-2.33-3.769 2.43.935-4.529-3.386-2.998zm-25 0l4.408-.483 1.687-4.287 1.79 4.242 4.417.346-3.293 3.1 1.04 4.509-3.83-2.33-3.768 2.43.935-4.529-3.387-2.998zm-38-73.999l4.408-.483 1.687-4.287 1.79 4.242 4.418.346-3.294 3.1 1.04 4.509-3.829-2.33-3.769 2.43.935-4.529-3.386-2.998zm12 11l4.408-.483 1.687-4.287 1.79 4.242 4.418.346-3.294 3.1 1.04 4.509-3.829-2.33-3.769 2.43.935-4.529-3.386-2.998zm-12 10l4.408-.483 1.687-4.287 1.79 4.242 4.418.346-3.294 3.1 1.04 4.509-3.829-2.33-3.769 2.43.935-4.529-3.386-2.998zm12 11l4.408-.483 1.687-4.287 1.79 4.242 4.418.346-3.294 3.1 1.04 4.509-3.829-2.33-3.769 2.43.935-4.529-3.386-2.998zm-12 10l4.408-.483 1.687-4.287 1.79 4.242 4.418.346-3.294 3.1 1.04 4.509-3.829-2.33-3.769 2.43.935-4.529-3.386-2.998zm12 11l4.408-.483 1.687-4.287 1.79 4.242 4.418.346-3.294 3.1 1.04 4.509-3.829-2.33-3.769 2.43.935-4.529-3.386-2.998zm64 9.999l4.408-.483 1.687-4.287 1.79 4.242 4.418.346-3.294 3.1 1.04 4.509-3.829-2.33-3.769 2.43.935-4.529-3.386-2.998zm-51-20.999l4.408-.483 1.687-4.287 1.79 4.242 4.418.346-3.294 3.1 1.04 4.509-3.829-2.33-3.769 2.43.935-4.529-3.386-2.998zm0-42l4.408-.483 1.687-4.287 1.79 4.242 4.418.346-3.294 3.1 1.04 4.509-3.829-2.33-3.769 2.43.935-4.529-3.386-2.998zm0 21l4.408-.483 1.687-4.287 1.79 4.242 4.418.346-3.294 3.1 1.04 4.509-3.829-2.33-3.769 2.43.935-4.529-3.386-2.998zm38 32l4.408-.483 1.687-4.287 1.79 4.242 4.418.346-3.294 3.1 1.04 4.509-3.829-2.33-3.769 2.43.935-4.529-3.386-2.998zm-25 0l4.408-.483 1.687-4.287 1.79 4.242 4.417.346-3.293 3.1 1.04 4.509-3.83-2.33-3.768 2.43.935-4.529-3.387-2.998zm0-42l4.408-.483 1.687-4.287 1.79 4.242 4.417.346-3.293 3.1 1.04 4.509-3.83-2.33-3.768 2.43.935-4.529-3.387-2.998zm0 21l4.408-.483 1.687-4.287 1.79 4.242 4.417.346-3.293 3.1 1.04 4.509-3.83-2.33-3.768 2.43.935-4.529-3.387-2.998zm38 10l4.408-.483 1.687-4.287 1.79 4.242 4.418.346-3.294 3.1 1.04 4.509-3.829-2.33-3.769 2.43.935-4.529-3.386-2.998zm-26 0l4.408-.483 1.687-4.287 1.79 4.242 4.418.346-3.294 3.1 1.04 4.509-3.829-2.33-3.769 2.43.935-4.529-3.386-2.998zm0-42l4.408-.483 1.687-4.287 1.79 4.242 4.418.346-3.294 3.1 1.04 4.509-3.829-2.33-3.769 2.43.935-4.529-3.386-2.998zm0 21l4.408-.483 1.687-4.287 1.79 4.242 4.418.346-3.294 3.1 1.04 4.509-3.829-2.33-3.769 2.43.935-4.529-3.386-2.998zm26-21l4.408-.483 1.687-4.287 1.79 4.242 4.418.346-3.294 3.1 1.04 4.509-3.829-2.33-3.769 2.43.935-4.529-3.386-2.998zm-13 11l4.408-.483 1.687-4.287 1.79 4.242 4.418.346-3.294 3.1 1.04 4.509-3.829-2.33-3.769 2.43.935-4.529-3.386-2.998zm13 10l4.408-.483 1.687-4.287 1.79 4.242 4.418.346-3.294 3.1 1.04 4.509-3.829-2.33-3.769 2.43.935-4.529-3.386-2.998zm-13 11l4.408-.483 1.687-4.287 1.79 4.242 4.418.346-3.294 3.1 1.04 4.509-3.829-2.33-3.769 2.43.935-4.529-3.386-2.998z" fill-rule="evenodd" fill="#fff"/></svg>